<svg width="416" height="407" viewBox="0 0 416 407" fill="none" xmlns="http://www.w3.org/2000/svg">
<path d="M208 407C322.875 407 416 379.285 416 345.098C416 310.91 322.875 283.195 208 283.195C93.1248 283.195 0 310.91 0 345.098C0 379.285 93.1248 407 208 407Z" fill="#FFF6DD"/>
<path d="M208 376.493C289.934 376.493 356.354 356.729 356.354 332.35C356.354 307.97 289.934 288.206 208 288.206C126.066 288.206 59.6455 307.97 59.6455 332.35C59.6455 356.729 126.066 376.493 208 376.493Z" fill="#FCE39F"/>
<path d="M207.999 349.791C252.726 349.791 288.983 339.001 288.983 325.69C288.983 312.379 252.726 301.588 207.999 301.588C163.273 301.588 127.016 312.379 127.016 325.69C127.016 339.001 163.273 349.791 207.999 349.791Z" fill="#F2C94C"/>
<path d="M350 208.309V107.691C350 87.1828 339.1 68.27 321.421 58.0161L234.579 7.69045C216.9 -2.56348 195.1 -2.56348 177.421 7.69045L90.5794 58.0161C72.8998 68.27 62 87.2154 62 107.691V208.309C62 228.817 72.8998 247.73 90.5794 257.984L177.421 308.31C195.1 318.564 216.9 318.564 234.579 308.31L321.421 257.984C339.1 247.73 350 228.785 350 208.309Z" fill="#FCE39F"/>
<mask id="mask0_1_2628" style="mask-type:alpha" maskUnits="userSpaceOnUse" x="65" y="3" width="282" height="309">
<path d="M346.712 206.927V108.904C346.712 88.9257 336.074 70.5008 318.82 60.5114L234.069 11.4842C216.815 1.49484 195.54 1.49484 178.286 11.4842L93.5342 60.5114C76.28 70.5008 65.6426 88.9574 65.6426 108.904V206.927C65.6426 226.906 76.28 245.331 93.5342 255.32L178.286 304.347C195.54 314.337 216.815 314.337 234.069 304.347L318.82 255.32C336.074 245.331 346.712 226.874 346.712 206.927Z" fill="#DDDDDD"/>
</mask>
<g mask="url(#mask0_1_2628)">
</g>
</svg>
